<svg width="20" height="20" viewBox="0 0 20 20" xmlns="http://www.w3.org/2000/svg">
<path fill-rule="evenodd" clip-rule="evenodd" d="M6.59706 5.48801H4C3.17157 5.48801 2.5 6.15958 2.5 6.98801V17.5C2.5 18.3284 3.17157 19 4 19H16C16.8284 19 17.5 18.3284 17.5 17.5V6.98801C17.5 6.15958 16.8284 5.48801 16 5.48801H13.4029C13.2461 2.67595 11.7657 0.999999 10 1C8.23427 1 6.75388 2.67595 6.59706 5.48801ZM7.59786 5.48801H12.4021C12.253 2.98583 10.9855 2 10 2C9.01451 2 7.74699 2.98583 7.59786 5.48801ZM4 6.48801C3.72386 6.48801 3.5 6.71186 3.5 6.98801V17.5C3.5 17.7761 3.72386 18 4 18H16C16.2761 18 16.5 17.7761 16.5 17.5V6.98801C16.5 6.71186 16.2761 6.48801 16 6.48801H4Z" />
</svg>
