<svg width="20" height="20" viewBox="0 0 20 20"  xmlns="http://www.w3.org/2000/svg">
<path d="M16.3857 11.5836H7.63904C8.26374 11.2996 8.94059 11.086 9.63939 10.8681C10.9037 10.4742 12.205 10.066 13.2634 9.17624H16.3857C16.6388 9.17624 16.844 8.97106 16.844 8.7179C16.844 8.46475 16.6388 8.25957 16.3857 8.25957H14.087C14.6297 7.40955 14.7636 6.36702 14.4352 5.30296C13.9497 3.72959 12.5611 2.41439 11.0583 2.10466C9.66302 1.81677 8.10737 2.13115 6.89888 2.94505C5.84185 3.6569 5.14128 4.69173 4.9259 5.85941C4.88006 6.10827 5.0446 6.34746 5.29364 6.3933C5.54214 6.4377 5.78151 6.27477 5.82752 6.02555C5.99761 5.10244 6.55996 4.27852 7.41092 3.7056C8.41925 3.02634 9.71244 2.76208 10.8735 3.0027C12.0634 3.24763 13.168 4.30501 13.5594 5.57331C13.7363 6.14623 13.8992 7.24515 13.0051 8.16898C12.9737 8.20147 12.9388 8.22833 12.9066 8.25957H3.45833C3.20518 8.25957 3 8.46475 3 8.7179C3 8.97106 3.20518 9.17624 3.45833 9.17624H11.5755C10.8949 9.512 10.1443 9.75054 9.36672 9.993C8.15211 10.3717 6.90205 10.7638 5.86235 11.5836H3.45833C3.20518 11.5836 3 11.7887 3 12.0419C3 12.2951 3.20518 12.5002 3.45833 12.5002H4.99639C4.26709 13.63 4.24699 15.1916 5.00718 16.5407C5.99098 18.2863 7.90148 18.9778 9.73481 18.9778C10.3722 18.9778 11.0002 18.8943 11.5767 18.7425C13.9916 18.1062 15.489 16.415 15.4851 14.3293C15.4847 14.0761 15.2796 13.8716 15.0268 13.8716C15.0264 13.8716 15.0261 13.8716 15.0261 13.8716C14.7729 13.872 14.5681 14.0779 14.5684 14.3307C14.5724 16.3026 12.9048 17.4445 11.3433 17.8559C9.37746 18.3733 6.84427 17.9336 5.80568 16.091C5.23706 15.0816 5.08828 13.5526 6.10557 12.5815C6.13603 12.5524 6.16939 12.5283 6.20048 12.5002H16.3857C16.6388 12.5002 16.844 12.2951 16.844 12.0419C16.844 11.7887 16.6388 11.5836 16.3857 11.5836Z" stroke-width="0.7"/>
</svg>
