<svg width="20" height="20" viewBox="0 0 20 20" xmlns="http://www.w3.org/2000/svg">
<path d="M12.0571 9.50909H10.5143V3.94545H11.3714C12.1441 3.94628 12.8848 4.23963 13.4312 4.76114C13.9775 5.28265 14.2849 5.98974 14.2857 6.72727C14.2857 6.85747 14.3399 6.98233 14.4363 7.0744C14.5328 7.16646 14.6636 7.21818 14.8 7.21818C14.9364 7.21818 15.0672 7.16646 15.1637 7.0744C15.2601 6.98233 15.3143 6.85747 15.3143 6.72727C15.3131 5.72944 14.8973 4.7728 14.1581 4.06722C13.419 3.36165 12.4168 2.96476 11.3714 2.96364H10.5143V1.49091C10.5143 1.36071 10.4601 1.23585 10.3637 1.14378C10.2672 1.05172 10.1364 1 10 1C9.8636 1 9.73279 1.05172 9.63635 1.14378C9.5399 1.23585 9.48571 1.36071 9.48571 1.49091V2.96364H8.28571C7.24 2.96364 6.23712 3.36016 5.49769 4.06598C4.75826 4.7718 4.34286 5.72909 4.34286 6.72727C4.34286 7.72545 4.75826 8.68275 5.49769 9.38856C6.23712 10.0944 7.24 10.4909 8.28571 10.4909H9.48571V16.0545H7.94286C7.17021 16.0537 6.42945 15.7604 5.8831 15.2389C5.33675 14.7173 5.02943 14.0103 5.02857 13.2727C5.02857 13.1425 4.97439 13.0177 4.87794 12.9256C4.78149 12.8335 4.65068 12.7818 4.51429 12.7818C4.37789 12.7818 4.24708 12.8335 4.15063 12.9256C4.05418 13.0177 4 13.1425 4 13.2727C4.00118 14.2706 4.41697 15.2272 5.15614 15.9328C5.89531 16.6383 6.89751 17.0352 7.94286 17.0364H9.48571V18.5091C9.48571 18.6393 9.5399 18.7642 9.63635 18.8562C9.73279 18.9483 9.8636 19 10 19C10.1364 19 10.2672 18.9483 10.3637 18.8562C10.4601 18.7642 10.5143 18.6393 10.5143 18.5091V17.0364H12.0571C13.1029 17.0364 14.1057 16.6398 14.8452 15.934C15.5846 15.2282 16 14.2709 16 13.2727C16 12.2745 15.5846 11.3173 14.8452 10.6114C14.1057 9.90561 13.1029 9.50909 12.0571 9.50909V9.50909ZM8.28571 9.50909C7.5128 9.50909 6.77154 9.21601 6.225 8.69432C5.67847 8.17262 5.37143 7.46506 5.37143 6.72727C5.37143 5.98949 5.67847 5.28192 6.225 4.76023C6.77154 4.23854 7.5128 3.94545 8.28571 3.94545H9.48571V9.50909H8.28571ZM12.0571 16.0545H10.5143V10.4909H12.0571C12.8301 10.4909 13.5713 10.784 14.1179 11.3057C14.6644 11.8274 14.9714 12.5349 14.9714 13.2727C14.9714 14.0105 14.6644 14.7181 14.1179 15.2398C13.5713 15.7615 12.8301 16.0545 12.0571 16.0545V16.0545Z" />
</svg>
