<svg width="20" height="20" viewBox="0 0 20 20" xmlns="http://www.w3.org/2000/svg">
<path d="M18.904 16.7459C18.861 16.674 18.8048 16.6117 18.7386 16.5624C18.6724 16.5131 18.5975 16.4779 18.5182 16.4588C18.4389 16.4397 18.3567 16.437 18.2764 16.451C18.1961 16.4649 18.1193 16.4952 18.0503 16.5401C17.1082 17.1498 16.0466 17.5322 14.9436 17.6592C13.8406 17.7862 12.7243 17.6545 11.6767 17.2738C10.6291 16.8931 9.67695 16.2731 8.89027 15.4595C8.10359 14.6458 7.5024 13.6592 7.13091 12.5721H14.3754C14.5395 12.5721 14.6969 12.5044 14.8129 12.3838C14.9289 12.2632 14.9941 12.0996 14.9941 11.929C14.9941 11.7585 14.9289 11.5949 14.8129 11.4743C14.6969 11.3537 14.5395 11.2859 14.3754 11.2859H6.80921C6.66018 10.4354 6.66018 9.56397 6.80921 8.71349H14.3754C14.5395 8.71349 14.6969 8.64573 14.8129 8.52513C14.9289 8.40452 14.9941 8.24094 14.9941 8.07038C14.9941 7.89982 14.9289 7.73624 14.8129 7.61563C14.6969 7.49503 14.5395 7.42727 14.3754 7.42727H7.13091C7.50123 6.34235 8.10035 5.3573 8.88437 4.54428C9.6684 3.73126 10.6175 3.11087 11.662 2.72857C12.7066 2.34627 13.8202 2.21174 14.9213 2.33484C16.0224 2.45794 17.083 2.83554 18.0255 3.44C18.165 3.53039 18.3333 3.5595 18.4934 3.5209C18.6535 3.48231 18.7923 3.37918 18.8793 3.2342C18.9662 3.08922 18.9942 2.91427 18.9571 2.74783C18.92 2.5814 18.8208 2.43711 18.6813 2.34671C17.5502 1.61935 16.2732 1.17253 14.9493 1.0409C13.6253 0.90927 12.29 1.09636 11.0468 1.58766C9.80359 2.07897 8.68595 2.86129 7.7805 3.87398C6.87504 4.88667 6.20611 6.10252 5.82554 7.42727H1.61866C1.45458 7.42727 1.29722 7.49503 1.1812 7.61563C1.06518 7.73624 1 7.89982 1 8.07038C1 8.24094 1.06518 8.40452 1.1812 8.52513C1.29722 8.64573 1.45458 8.71349 1.61866 8.71349H5.55952C5.49697 9.13922 5.46389 9.56906 5.46053 9.99971C5.46389 10.4304 5.49697 10.8602 5.55952 11.2859H1.61866C1.45458 11.2859 1.29722 11.3537 1.1812 11.4743C1.06518 11.5949 1 11.7585 1 11.929C1 12.0996 1.06518 12.2632 1.1812 12.3838C1.29722 12.5044 1.45458 12.5721 1.61866 12.5721H5.82554C6.20691 13.9 6.87799 15.1185 7.78654 16.1326C8.69508 17.1467 9.81655 17.9291 11.0636 18.4189C12.3107 18.9087 13.6497 19.0926 14.9763 18.9564C16.303 18.8201 17.5815 18.3674 18.7122 17.6334C18.7809 17.5882 18.8403 17.5294 18.8871 17.4604C18.9339 17.3913 18.9671 17.3134 18.985 17.231C19.0028 17.1486 19.0048 17.0633 18.9909 16.9801C18.977 16.8968 18.9475 16.8173 18.904 16.7459V16.7459Z" />
</svg>
