<svg width="20" height="20" viewBox="0 0 20 20" xmlns="http://www.w3.org/2000/svg">
<path d="M8.73998 15.88C4.78551 15.88 1.59998 12.6944 1.59998 8.73998C1.59998 4.78551 4.78551 1.59998 8.73998 1.59998C12.6944 1.59998 15.88 4.78551 15.88 8.73998C15.88 12.6944 12.6944 15.88 8.73998 15.88ZM8.73998 2.69844C5.38967 2.69844 2.69844 5.38967 2.69844 8.73998C2.69844 12.0903 5.38967 14.7815 8.73998 14.7815C12.0903 14.7815 14.7815 12.0903 14.7815 8.73998C14.7815 5.38967 12.0903 2.69844 8.73998 2.69844Z" />
<path d="M13.3218 12.5199L18.4018 17.6L17.6019 18.3999L12.5219 13.3198L13.3218 12.5199Z" />
</svg>
