<svg width="22" height="22" viewBox="0 0 22 22" xmlns="http://www.w3.org/2000/svg">
<path d="M17.4635 12.0933H8.71692C9.34162 11.8094 10.0185 11.5958 10.7173 11.3779C11.9816 10.984 13.2829 10.5757 14.3413 9.686H17.4635C17.7167 9.686 17.9219 9.48083 17.9219 9.22767C17.9219 8.97451 17.7167 8.76934 17.4635 8.76934H15.1649C15.7076 7.91932 15.8415 6.87679 15.5131 5.81273C15.0276 4.23936 13.639 2.92416 12.1361 2.61442C10.7409 2.32653 9.18525 2.64092 7.97676 3.45482C6.91973 4.16667 6.21916 5.2015 6.00378 6.36917C5.95794 6.61803 6.12248 6.85723 6.37152 6.90306C6.62002 6.94746 6.85939 6.78454 6.9054 6.53532C7.07549 5.61221 7.63784 4.78828 8.4888 4.21537C9.49714 3.5361 10.7903 3.27184 11.9514 3.51247C13.1412 3.75739 14.2459 4.81478 14.6373 6.08307C14.8142 6.65599 14.9771 7.75492 14.083 8.67874C14.0515 8.71124 14.0167 8.73809 13.9845 8.76934H4.53621C4.28306 8.76934 4.07788 8.97451 4.07788 9.22767C4.07788 9.48083 4.28306 9.686 4.53621 9.686H12.6534C11.9728 10.0218 11.2222 10.2603 10.4446 10.5028C9.22999 10.8815 7.97994 11.2736 6.94023 12.0933H4.53621C4.28306 12.0933 4.07788 12.2985 4.07788 12.5517C4.07788 12.8048 4.28306 13.01 4.53621 13.01H6.07427C5.34497 14.1398 5.32487 15.7014 6.08506 17.0505C7.06886 18.7961 8.97936 19.4875 10.8127 19.4875C11.4501 19.4875 12.0781 19.4041 12.6546 19.2523C15.0695 18.616 16.5669 16.9248 16.563 14.839C16.5626 14.5859 16.3575 14.3814 16.1047 14.3814C16.1043 14.3814 16.1039 14.3814 16.1039 14.3814C15.8508 14.3818 15.646 14.5877 15.6463 14.8405C15.6503 16.8124 13.9827 17.9543 12.4212 18.3657C10.4553 18.8831 7.92215 18.4434 6.88356 16.6007C6.31494 15.5913 6.16616 14.0624 7.18345 13.0913C7.21391 13.0622 7.24727 13.038 7.27836 13.01H17.4635C17.7167 13.01 17.9219 12.8048 17.9219 12.5517C17.9219 12.2985 17.7167 12.0933 17.4635 12.0933Z" />
</svg>
