<svg width="20" height="20" viewBox="0 0 20 20" xmlns="http://www.w3.org/2000/svg">
<path d="M16.5365 11.1606H7.69132C8.32306 10.8596 9.00753 10.6331 9.7142 10.4021C10.9929 9.98449 12.3087 9.5516 13.379 8.60833H16.5365C16.7925 8.60833 17 8.39081 17 8.12241C17 7.854 16.7925 7.63648 16.5365 7.63648H14.2119C14.7607 6.73528 14.8963 5.62997 14.5642 4.50185C14.0731 2.83374 12.6688 1.43935 11.1491 1.11096C9.73807 0.805734 8.16494 1.13905 6.94282 2.00196C5.87388 2.75667 5.16541 3.85381 4.9476 5.09179C4.90126 5.35563 5.06764 5.60924 5.31949 5.65783C5.57079 5.7049 5.81287 5.53217 5.8594 5.26794C6.03139 4.28925 6.60009 3.41571 7.46064 2.8083C8.48033 2.08813 9.78813 1.80796 10.9622 2.06308C12.1655 2.32275 13.2826 3.44381 13.6784 4.78846C13.8573 5.39588 14.022 6.56098 13.1178 7.54042C13.0861 7.57488 13.0508 7.60336 13.0182 7.63648H3.46351C3.20749 7.63648 3 7.854 3 8.12241C3 8.39081 3.20749 8.60833 3.46351 8.60833H11.6722C10.984 8.96435 10.2249 9.21721 9.43843 9.47431C8.21017 9.87582 6.94604 10.2915 5.89461 11.1606H3.46351C3.20749 11.1606 3 11.3781 3 11.6466C3 11.9149 3.20749 12.1325 3.46351 12.1325H5.0189C4.28137 13.3303 4.26104 14.9859 5.0298 16.4163C6.0247 18.267 7.95673 19 9.81068 19C10.4553 19 11.0904 18.9116 11.6734 18.7506C14.1155 18.076 15.6298 16.283 15.6258 14.0716C15.6255 13.8033 15.418 13.5865 15.1623 13.5865C14.9063 13.5869 14.6984 13.8052 14.6989 14.0732C14.7028 16.1638 13.0165 17.3745 11.4373 17.8107C9.44935 18.3592 6.8876 17.893 5.83731 15.9394C5.26228 14.8692 5.11182 13.2482 6.14057 12.2187C6.17137 12.1878 6.20512 12.1622 6.23655 12.1325H16.5365C16.7925 12.1325 17 11.9149 17 11.6466C17 11.3781 16.7925 11.1606 16.5365 11.1606Z" />
</svg>
