<svg width="0" height="0" class="hidden">
  <symbol xmlns="http://www.w3.org/2000/svg" viewBox="0 0 20 20" id="search">
    <path d="M8.73998 15.88C4.78551 15.88 1.59998 12.6944 1.59998 8.73998C1.59998 4.78551 4.78551 1.59998 8.73998 1.59998C12.6944 1.59998 15.88 4.78551 15.88 8.73998C15.88 12.6944 12.6944 15.88 8.73998 15.88ZM8.73998 2.69844C5.38967 2.69844 2.69844 5.38967 2.69844 8.73998C2.69844 12.0903 5.38967 14.7815 8.73998 14.7815C12.0903 14.7815 14.7815 12.0903 14.7815 8.73998C14.7815 5.38967 12.0903 2.69844 8.73998 2.69844Z"></path>
    <path d="M13.3218 12.5199L18.4018 17.6L17.6019 18.3999L12.5219 13.3198L13.3218 12.5199Z"></path>
  </symbol>
  <symbol xmlns="http://www.w3.org/2000/svg" viewBox="0 0 22 22" id="ua">
    <path d="M17.4635 12.0933H8.71692C9.34162 11.8094 10.0185 11.5958 10.7173 11.3779C11.9816 10.984 13.2829 10.5757 14.3413 9.686H17.4635C17.7167 9.686 17.9219 9.48083 17.9219 9.22767C17.9219 8.97451 17.7167 8.76934 17.4635 8.76934H15.1649C15.7076 7.91932 15.8415 6.87679 15.5131 5.81273C15.0276 4.23936 13.639 2.92416 12.1361 2.61442C10.7409 2.32653 9.18525 2.64092 7.97676 3.45482C6.91973 4.16667 6.21916 5.2015 6.00378 6.36917C5.95794 6.61803 6.12248 6.85723 6.37152 6.90306C6.62002 6.94746 6.85939 6.78454 6.9054 6.53532C7.07549 5.61221 7.63784 4.78828 8.4888 4.21537C9.49714 3.5361 10.7903 3.27184 11.9514 3.51247C13.1412 3.75739 14.2459 4.81478 14.6373 6.08307C14.8142 6.65599 14.9771 7.75492 14.083 8.67874C14.0515 8.71124 14.0167 8.73809 13.9845 8.76934H4.53621C4.28306 8.76934 4.07788 8.97451 4.07788 9.22767C4.07788 9.48083 4.28306 9.686 4.53621 9.686H12.6534C11.9728 10.0218 11.2222 10.2603 10.4446 10.5028C9.22999 10.8815 7.97994 11.2736 6.94023 12.0933H4.53621C4.28306 12.0933 4.07788 12.2985 4.07788 12.5517C4.07788 12.8048 4.28306 13.01 4.53621 13.01H6.07427C5.34497 14.1398 5.32487 15.7014 6.08506 17.0505C7.06886 18.7961 8.97936 19.4875 10.8127 19.4875C11.4501 19.4875 12.0781 19.4041 12.6546 19.2523C15.0695 18.616 16.5669 16.9248 16.563 14.839C16.5626 14.5859 16.3575 14.3814 16.1047 14.3814C16.1043 14.3814 16.1039 14.3814 16.1039 14.3814C15.8508 14.3818 15.646 14.5877 15.6463 14.8405C15.6503 16.8124 13.9827 17.9543 12.4212 18.3657C10.4553 18.8831 7.92215 18.4434 6.88356 16.6007C6.31494 15.5913 6.16616 14.0624 7.18345 13.0913C7.21391 13.0622 7.24727 13.038 7.27836 13.01H17.4635C17.7167 13.01 17.9219 12.8048 17.9219 12.5517C17.9219 12.2985 17.7167 12.0933 17.4635 12.0933Z"></path>
  </symbol>
  <symbol xmlns="http://www.w3.org/2000/svg" viewBox="0 0 12 12" id="arrow">
    <path fill-rule="evenodd" clip-rule="evenodd" d="M1.64642 4.35353L2.35353 3.64642L5.99998 7.29287L9.64642 3.64642L10.3535 4.35353L5.99998 8.70708L1.64642 4.35353Z"></path>
  </symbol>
  <symbol xmlns="http://www.w3.org/2000/svg" viewBox="0 0 20 20" id="dolar">
    <path d="M16.3857 11.5836H7.63904C8.26374 11.2996 8.94059 11.086 9.63939 10.8681C10.9037 10.4742 12.205 10.066 13.2634 9.17624H16.3857C16.6388 9.17624 16.844 8.97106 16.844 8.7179C16.844 8.46475 16.6388 8.25957 16.3857 8.25957H14.087C14.6297 7.40955 14.7636 6.36702 14.4352 5.30296C13.9497 3.72959 12.5611 2.41439 11.0583 2.10466C9.66302 1.81677 8.10737 2.13115 6.89888 2.94505C5.84185 3.6569 5.14128 4.69173 4.9259 5.85941C4.88006 6.10827 5.0446 6.34746 5.29364 6.3933C5.54214 6.4377 5.78151 6.27477 5.82752 6.02555C5.99761 5.10244 6.55996 4.27852 7.41092 3.7056C8.41925 3.02634 9.71244 2.76208 10.8735 3.0027C12.0634 3.24763 13.168 4.30501 13.5594 5.57331C13.7363 6.14623 13.8992 7.24515 13.0051 8.16898C12.9737 8.20147 12.9388 8.22833 12.9066 8.25957H3.45833C3.20518 8.25957 3 8.46475 3 8.7179C3 8.97106 3.20518 9.17624 3.45833 9.17624H11.5755C10.8949 9.512 10.1443 9.75054 9.36672 9.993C8.15211 10.3717 6.90205 10.7638 5.86235 11.5836H3.45833C3.20518 11.5836 3 11.7887 3 12.0419C3 12.2951 3.20518 12.5002 3.45833 12.5002H4.99639C4.26709 13.63 4.24699 15.1916 5.00718 16.5407C5.99098 18.2863 7.90148 18.9778 9.73481 18.9778C10.3722 18.9778 11.0002 18.8943 11.5767 18.7425C13.9916 18.1062 15.489 16.415 15.4851 14.3293C15.4847 14.0761 15.2796 13.8716 15.0268 13.8716C15.0264 13.8716 15.0261 13.8716 15.0261 13.8716C14.7729 13.872 14.5681 14.0779 14.5684 14.3307C14.5724 16.3026 12.9048 17.4445 11.3433 17.8559C9.37746 18.3733 6.84427 17.9336 5.80568 16.091C5.23706 15.0816 5.08828 13.5526 6.10557 12.5815C6.13603 12.5524 6.16939 12.5283 6.20048 12.5002H16.3857C16.6388 12.5002 16.844 12.2951 16.844 12.0419C16.844 11.7887 16.6388 11.5836 16.3857 11.5836Z" stroke-width="0.7"></path>
  </symbol>
</svg>