<svg width="0" height="0" class="hidden">
  <symbol xmlns="http://www.w3.org/2000/svg" viewBox="0 0 20 20" id="search">
    <path d="M8.73998 15.88C4.78551 15.88 1.59998 12.6944 1.59998 8.73998C1.59998 4.78551 4.78551 1.59998 8.73998 1.59998C12.6944 1.59998 15.88 4.78551 15.88 8.73998C15.88 12.6944 12.6944 15.88 8.73998 15.88ZM8.73998 2.69844C5.38967 2.69844 2.69844 5.38967 2.69844 8.73998C2.69844 12.0903 5.38967 14.7815 8.73998 14.7815C12.0903 14.7815 14.7815 12.0903 14.7815 8.73998C14.7815 5.38967 12.0903 2.69844 8.73998 2.69844Z"></path>
    <path d="M13.3218 12.5199L18.4018 17.6L17.6019 18.3999L12.5219 13.3198L13.3218 12.5199Z"></path>
  </symbol>
  <symbol xmlns="http://www.w3.org/2000/svg" viewBox="0 0 22 22" id="ua">
    <path d="M17.4635 12.0933H8.71692C9.34162 11.8094 10.0185 11.5958 10.7173 11.3779C11.9816 10.984 13.2829 10.5757 14.3413 9.686H17.4635C17.7167 9.686 17.9219 9.48083 17.9219 9.22767C17.9219 8.97451 17.7167 8.76934 17.4635 8.76934H15.1649C15.7076 7.91932 15.8415 6.87679 15.5131 5.81273C15.0276 4.23936 13.639 2.92416 12.1361 2.61442C10.7409 2.32653 9.18525 2.64092 7.97676 3.45482C6.91973 4.16667 6.21916 5.2015 6.00378 6.36917C5.95794 6.61803 6.12248 6.85723 6.37152 6.90306C6.62002 6.94746 6.85939 6.78454 6.9054 6.53532C7.07549 5.61221 7.63784 4.78828 8.4888 4.21537C9.49714 3.5361 10.7903 3.27184 11.9514 3.51247C13.1412 3.75739 14.2459 4.81478 14.6373 6.08307C14.8142 6.65599 14.9771 7.75492 14.083 8.67874C14.0515 8.71124 14.0167 8.73809 13.9845 8.76934H4.53621C4.28306 8.76934 4.07788 8.97451 4.07788 9.22767C4.07788 9.48083 4.28306 9.686 4.53621 9.686H12.6534C11.9728 10.0218 11.2222 10.2603 10.4446 10.5028C9.22999 10.8815 7.97994 11.2736 6.94023 12.0933H4.53621C4.28306 12.0933 4.07788 12.2985 4.07788 12.5517C4.07788 12.8048 4.28306 13.01 4.53621 13.01H6.07427C5.34497 14.1398 5.32487 15.7014 6.08506 17.0505C7.06886 18.7961 8.97936 19.4875 10.8127 19.4875C11.4501 19.4875 12.0781 19.4041 12.6546 19.2523C15.0695 18.616 16.5669 16.9248 16.563 14.839C16.5626 14.5859 16.3575 14.3814 16.1047 14.3814C16.1043 14.3814 16.1039 14.3814 16.1039 14.3814C15.8508 14.3818 15.646 14.5877 15.6463 14.8405C15.6503 16.8124 13.9827 17.9543 12.4212 18.3657C10.4553 18.8831 7.92215 18.4434 6.88356 16.6007C6.31494 15.5913 6.16616 14.0624 7.18345 13.0913C7.21391 13.0622 7.24727 13.038 7.27836 13.01H17.4635C17.7167 13.01 17.9219 12.8048 17.9219 12.5517C17.9219 12.2985 17.7167 12.0933 17.4635 12.0933Z"></path>
  </symbol>
  <symbol xmlns="http://www.w3.org/2000/svg" viewBox="0 0 12 12" id="arrow">
    <path fill-rule="evenodd" clip-rule="evenodd" d="M1.64642 4.35353L2.35353 3.64642L5.99998 7.29287L9.64642 3.64642L10.3535 4.35353L5.99998 8.70708L1.64642 4.35353Z"></path>
  </symbol>
  <symbol xmlns="http://www.w3.org/2000/svg" viewBox="0 0 20 20" id="dolar">
    <path d="M16.3857 11.5836H7.63904C8.26374 11.2996 8.94059 11.086 9.63939 10.8681C10.9037 10.4742 12.205 10.066 13.2634 9.17624H16.3857C16.6388 9.17624 16.844 8.97106 16.844 8.7179C16.844 8.46475 16.6388 8.25957 16.3857 8.25957H14.087C14.6297 7.40955 14.7636 6.36702 14.4352 5.30296C13.9497 3.72959 12.5611 2.41439 11.0583 2.10466C9.66302 1.81677 8.10737 2.13115 6.89888 2.94505C5.84185 3.6569 5.14128 4.69173 4.9259 5.85941C4.88006 6.10827 5.0446 6.34746 5.29364 6.3933C5.54214 6.4377 5.78151 6.27477 5.82752 6.02555C5.99761 5.10244 6.55996 4.27852 7.41092 3.7056C8.41925 3.02634 9.71244 2.76208 10.8735 3.0027C12.0634 3.24763 13.168 4.30501 13.5594 5.57331C13.7363 6.14623 13.8992 7.24515 13.0051 8.16898C12.9737 8.20147 12.9388 8.22833 12.9066 8.25957H3.45833C3.20518 8.25957 3 8.46475 3 8.7179C3 8.97106 3.20518 9.17624 3.45833 9.17624H11.5755C10.8949 9.512 10.1443 9.75054 9.36672 9.993C8.15211 10.3717 6.90205 10.7638 5.86235 11.5836H3.45833C3.20518 11.5836 3 11.7887 3 12.0419C3 12.2951 3.20518 12.5002 3.45833 12.5002H4.99639C4.26709 13.63 4.24699 15.1916 5.00718 16.5407C5.99098 18.2863 7.90148 18.9778 9.73481 18.9778C10.3722 18.9778 11.0002 18.8943 11.5767 18.7425C13.9916 18.1062 15.489 16.415 15.4851 14.3293C15.4847 14.0761 15.2796 13.8716 15.0268 13.8716C15.0264 13.8716 15.0261 13.8716 15.0261 13.8716C14.7729 13.872 14.5681 14.0779 14.5684 14.3307C14.5724 16.3026 12.9048 17.4445 11.3433 17.8559C9.37746 18.3733 6.84427 17.9336 5.80568 16.091C5.23706 15.0816 5.08828 13.5526 6.10557 12.5815C6.13603 12.5524 6.16939 12.5283 6.20048 12.5002H16.3857C16.6388 12.5002 16.844 12.2951 16.844 12.0419C16.844 11.7887 16.6388 11.5836 16.3857 11.5836Z" stroke-width="0.7"></path>
  </symbol>
  <symbol xmlns="http://www.w3.org/2000/svg" viewBox="0 0 20 20" id="basket">
    <path fill-rule="evenodd" clip-rule="evenodd" d="M6.59706 5.48801H4C3.17157 5.48801 2.5 6.15958 2.5 6.98801V17.5C2.5 18.3284 3.17157 19 4 19H16C16.8284 19 17.5 18.3284 17.5 17.5V6.98801C17.5 6.15958 16.8284 5.48801 16 5.48801H13.4029C13.2461 2.67595 11.7657 0.999999 10 1C8.23427 1 6.75388 2.67595 6.59706 5.48801ZM7.59786 5.48801H12.4021C12.253 2.98583 10.9855 2 10 2C9.01451 2 7.74699 2.98583 7.59786 5.48801ZM4 6.48801C3.72386 6.48801 3.5 6.71186 3.5 6.98801V17.5C3.5 17.7761 3.72386 18 4 18H16C16.2761 18 16.5 17.7761 16.5 17.5V6.98801C16.5 6.71186 16.2761 6.48801 16 6.48801H4Z"></path>
  </symbol>
  <symbol xmlns="http://www.w3.org/2000/svg" viewBox="0 0 20 20" id="dolar">
    <path d="M12.0571 9.50909H10.5143V3.94545H11.3714C12.1441 3.94628 12.8848 4.23963 13.4312 4.76114C13.9775 5.28265 14.2849 5.98974 14.2857 6.72727C14.2857 6.85747 14.3399 6.98233 14.4363 7.0744C14.5328 7.16646 14.6636 7.21818 14.8 7.21818C14.9364 7.21818 15.0672 7.16646 15.1637 7.0744C15.2601 6.98233 15.3143 6.85747 15.3143 6.72727C15.3131 5.72944 14.8973 4.7728 14.1581 4.06722C13.419 3.36165 12.4168 2.96476 11.3714 2.96364H10.5143V1.49091C10.5143 1.36071 10.4601 1.23585 10.3637 1.14378C10.2672 1.05172 10.1364 1 10 1C9.8636 1 9.73279 1.05172 9.63635 1.14378C9.5399 1.23585 9.48571 1.36071 9.48571 1.49091V2.96364H8.28571C7.24 2.96364 6.23712 3.36016 5.49769 4.06598C4.75826 4.7718 4.34286 5.72909 4.34286 6.72727C4.34286 7.72545 4.75826 8.68275 5.49769 9.38856C6.23712 10.0944 7.24 10.4909 8.28571 10.4909H9.48571V16.0545H7.94286C7.17021 16.0537 6.42945 15.7604 5.8831 15.2389C5.33675 14.7173 5.02943 14.0103 5.02857 13.2727C5.02857 13.1425 4.97439 13.0177 4.87794 12.9256C4.78149 12.8335 4.65068 12.7818 4.51429 12.7818C4.37789 12.7818 4.24708 12.8335 4.15063 12.9256C4.05418 13.0177 4 13.1425 4 13.2727C4.00118 14.2706 4.41697 15.2272 5.15614 15.9328C5.89531 16.6383 6.89751 17.0352 7.94286 17.0364H9.48571V18.5091C9.48571 18.6393 9.5399 18.7642 9.63635 18.8562C9.73279 18.9483 9.8636 19 10 19C10.1364 19 10.2672 18.9483 10.3637 18.8562C10.4601 18.7642 10.5143 18.6393 10.5143 18.5091V17.0364H12.0571C13.1029 17.0364 14.1057 16.6398 14.8452 15.934C15.5846 15.2282 16 14.2709 16 13.2727C16 12.2745 15.5846 11.3173 14.8452 10.6114C14.1057 9.90561 13.1029 9.50909 12.0571 9.50909V9.50909ZM8.28571 9.50909C7.5128 9.50909 6.77154 9.21601 6.225 8.69432C5.67847 8.17262 5.37143 7.46506 5.37143 6.72727C5.37143 5.98949 5.67847 5.28192 6.225 4.76023C6.77154 4.23854 7.5128 3.94545 8.28571 3.94545H9.48571V9.50909H8.28571ZM12.0571 16.0545H10.5143V10.4909H12.0571C12.8301 10.4909 13.5713 10.784 14.1179 11.3057C14.6644 11.8274 14.9714 12.5349 14.9714 13.2727C14.9714 14.0105 14.6644 14.7181 14.1179 15.2398C13.5713 15.7615 12.8301 16.0545 12.0571 16.0545V16.0545Z"></path>
  </symbol>
  <symbol xmlns="http://www.w3.org/2000/svg" viewBox="0 0 20 20" id="euro">
    <path d="M18.904 16.7459C18.861 16.674 18.8048 16.6117 18.7386 16.5624C18.6724 16.5131 18.5975 16.4779 18.5182 16.4588C18.4389 16.4397 18.3567 16.437 18.2764 16.451C18.1961 16.4649 18.1193 16.4952 18.0503 16.5401C17.1082 17.1498 16.0466 17.5322 14.9436 17.6592C13.8406 17.7862 12.7243 17.6545 11.6767 17.2738C10.6291 16.8931 9.67695 16.2731 8.89027 15.4595C8.10359 14.6458 7.5024 13.6592 7.13091 12.5721H14.3754C14.5395 12.5721 14.6969 12.5044 14.8129 12.3838C14.9289 12.2632 14.9941 12.0996 14.9941 11.929C14.9941 11.7585 14.9289 11.5949 14.8129 11.4743C14.6969 11.3537 14.5395 11.2859 14.3754 11.2859H6.80921C6.66018 10.4354 6.66018 9.56397 6.80921 8.71349H14.3754C14.5395 8.71349 14.6969 8.64573 14.8129 8.52513C14.9289 8.40452 14.9941 8.24094 14.9941 8.07038C14.9941 7.89982 14.9289 7.73624 14.8129 7.61563C14.6969 7.49503 14.5395 7.42727 14.3754 7.42727H7.13091C7.50123 6.34235 8.10035 5.3573 8.88437 4.54428C9.6684 3.73126 10.6175 3.11087 11.662 2.72857C12.7066 2.34627 13.8202 2.21174 14.9213 2.33484C16.0224 2.45794 17.083 2.83554 18.0255 3.44C18.165 3.53039 18.3333 3.5595 18.4934 3.5209C18.6535 3.48231 18.7923 3.37918 18.8793 3.2342C18.9662 3.08922 18.9942 2.91427 18.9571 2.74783C18.92 2.5814 18.8208 2.43711 18.6813 2.34671C17.5502 1.61935 16.2732 1.17253 14.9493 1.0409C13.6253 0.90927 12.29 1.09636 11.0468 1.58766C9.80359 2.07897 8.68595 2.86129 7.7805 3.87398C6.87504 4.88667 6.20611 6.10252 5.82554 7.42727H1.61866C1.45458 7.42727 1.29722 7.49503 1.1812 7.61563C1.06518 7.73624 1 7.89982 1 8.07038C1 8.24094 1.06518 8.40452 1.1812 8.52513C1.29722 8.64573 1.45458 8.71349 1.61866 8.71349H5.55952C5.49697 9.13922 5.46389 9.56906 5.46053 9.99971C5.46389 10.4304 5.49697 10.8602 5.55952 11.2859H1.61866C1.45458 11.2859 1.29722 11.3537 1.1812 11.4743C1.06518 11.5949 1 11.7585 1 11.929C1 12.0996 1.06518 12.2632 1.1812 12.3838C1.29722 12.5044 1.45458 12.5721 1.61866 12.5721H5.82554C6.20691 13.9 6.87799 15.1185 7.78654 16.1326C8.69508 17.1467 9.81655 17.9291 11.0636 18.4189C12.3107 18.9087 13.6497 19.0926 14.9763 18.9564C16.303 18.8201 17.5815 18.3674 18.7122 17.6334C18.7809 17.5882 18.8403 17.5294 18.8871 17.4604C18.9339 17.3913 18.9671 17.3134 18.985 17.231C19.0028 17.1486 19.0048 17.0633 18.9909 16.9801C18.977 16.8968 18.9475 16.8173 18.904 16.7459V16.7459Z"></path>
  </symbol>
  <symbol xmlns="http://www.w3.org/2000/svg" viewBox="0 0 20 20" id="ua">
    <path d="M16.5365 11.1606H7.69132C8.32306 10.8596 9.00753 10.6331 9.7142 10.4021C10.9929 9.98449 12.3087 9.5516 13.379 8.60833H16.5365C16.7925 8.60833 17 8.39081 17 8.12241C17 7.854 16.7925 7.63648 16.5365 7.63648H14.2119C14.7607 6.73528 14.8963 5.62997 14.5642 4.50185C14.0731 2.83374 12.6688 1.43935 11.1491 1.11096C9.73807 0.805734 8.16494 1.13905 6.94282 2.00196C5.87388 2.75667 5.16541 3.85381 4.9476 5.09179C4.90126 5.35563 5.06764 5.60924 5.31949 5.65783C5.57079 5.7049 5.81287 5.53217 5.8594 5.26794C6.03139 4.28925 6.60009 3.41571 7.46064 2.8083C8.48033 2.08813 9.78813 1.80796 10.9622 2.06308C12.1655 2.32275 13.2826 3.44381 13.6784 4.78846C13.8573 5.39588 14.022 6.56098 13.1178 7.54042C13.0861 7.57488 13.0508 7.60336 13.0182 7.63648H3.46351C3.20749 7.63648 3 7.854 3 8.12241C3 8.39081 3.20749 8.60833 3.46351 8.60833H11.6722C10.984 8.96435 10.2249 9.21721 9.43843 9.47431C8.21017 9.87582 6.94604 10.2915 5.89461 11.1606H3.46351C3.20749 11.1606 3 11.3781 3 11.6466C3 11.9149 3.20749 12.1325 3.46351 12.1325H5.0189C4.28137 13.3303 4.26104 14.9859 5.0298 16.4163C6.0247 18.267 7.95673 19 9.81068 19C10.4553 19 11.0904 18.9116 11.6734 18.7506C14.1155 18.076 15.6298 16.283 15.6258 14.0716C15.6255 13.8033 15.418 13.5865 15.1623 13.5865C14.9063 13.5869 14.6984 13.8052 14.6989 14.0732C14.7028 16.1638 13.0165 17.3745 11.4373 17.8107C9.44935 18.3592 6.8876 17.893 5.83731 15.9394C5.26228 14.8692 5.11182 13.2482 6.14057 12.2187C6.17137 12.1878 6.20512 12.1622 6.23655 12.1325H16.5365C16.7925 12.1325 17 11.9149 17 11.6466C17 11.3781 16.7925 11.1606 16.5365 11.1606Z"></path>
  </symbol>
</svg>